<?xml version="1.0" encoding="utf-8"?>
<!-- Generator: Adobe Illustrator 18.0.0, SVG Export Plug-In . SVG Version: 6.00 Build 0)  -->
<!DOCTYPE svg PUBLIC "-//W3C//DTD SVG 1.1//EN" "http://www.w3.org/Graphics/SVG/1.1/DTD/svg11.dtd">
<svg version="1.1" xmlns="http://www.w3.org/2000/svg" xmlns:xlink="http://www.w3.org/1999/xlink" x="0px" y="0px"
	 viewBox="0 0 360 360" enable-background="new 0 0 360 360" xml:space="preserve">
<g id="Layer_1">
	<path fill="none" stroke="#000000" stroke-width="5" stroke-miterlimit="10" d="M181.7,173c30.8-6,57.9-33,57.9-65.6
		c0-37-30-66.9-66.9-66.9s-66.9,30-66.9,66.9c0,33,27.1,60.3,58.6,65.8c0,0-3.9,17.3-1.4,19.9c1.8,1.1,6.8,0.9,10.4,0.9
		c3.9,0,9.1,0.1,11.5-1.1C185.6,191.2,181.7,173,181.7,173z"/>
	<path fill="none" stroke="#000000" stroke-width="4" stroke-miterlimit="10" d="M163.3,178.7c8.2,1.6,11.1,1.7,19.5,0
		c37.7,13.6,6.2,34.3,2.6,60.7c-3.1,23.3-1.2,37.9,6,55.3"/>
	<path fill="none" stroke="#000000" stroke-width="3" stroke-miterlimit="10" d="M180.7,158.7c19.8-1.7,38.6-17,40.8-37.5"/>
</g>
<g id="Layer_2">
	<g>
		<g>
			<path fill="none" stroke="#000000" stroke-width="2" stroke-miterlimit="10" d="M244,281.4c-0.1,1.3-0.4,2.6-0.8,3.8
				c-5.1-1-9.4-5.1-10.8-10.1c-0.6-2.2-1.5-7.4,1.2-11.5c0.9-1.4,3.9-4.6,9.1-1.9c1.3,0.6,7.2,5.6,9.8,16.6c0.5,3.4,0.4,7-1.3,9.9
				s-5,4.8-8.8,4c-0.5-0.1-20.3-1.2-22.3-1.2c-7.8,0.1-29.6,4.6-30.4,4.3c-0.7-0.3,6.4-0.3,5.8-0.9c-7.4-7.2-8.7-15.7-6.1-22.1
				c2.3-1.3,15.3-5.8,16.9-6.4c3.2-1.2,6.4-2.5,9.6-3.8c5.2-2.1,10.3-4.4,15.5-6.7c1.8-0.8,3.5-1.5,5.3-2.3
				c-11,10.7-15.4,25.7,4.6,34.8c9.9,2.7,7.4-10.2,6.7-12.7c-0.2-1.1-2.8-6.2-4-7.7c-1.1-1.4-2.6-2.6-4.4-3.2
				c-1.5,0-4.3,0.9-3.5,7.5C237.8,280.1,242.2,280.8,244,281.4z"/>
			<path fill="none" stroke="#000000" stroke-width="2" stroke-miterlimit="10" d="M184.3,274.2"/>
			<path fill="none" stroke="#000000" stroke-width="2" stroke-miterlimit="10" d="M187.5,291.5c0.7,1.3,1.6,2.5,2.8,3.4
				c-0.1,0.3-0.4,0.4-0.6,0.5c-1.2,0.4-5.3,1.6-5.6,1.8c-0.5,0.3-8.8,2.9-10.7,3.7c-1.2,0.5-19.7,8.7-21.8,9.6
				c-4.1-3-7.2-6.3-8.9-12.1c-1.7-5.8,0.2-10.8,1.6-16.1c2.4,0,4.7-0.3,7.1-0.7c7.4-1.1,14.8-2.3,22-4.2c1.4-0.4,8-2.2,10.5-2.9
				c0.6-0.2,0.9-0.3,0.9-0.3C182.8,283.6,187.2,290.9,187.5,291.5z"/>
		</g>
		<line fill="none" stroke="#000000" stroke-width="2" stroke-miterlimit="10" x1="194.7" y1="294.6" x2="189" y2="291.2"/>
		<path fill="none" stroke="#000000" stroke-width="4" stroke-miterlimit="10" d="M191.5,295.2c-3.5-5.8-5.8-14.4-4-22"/>
		<line fill="none" stroke="#000000" stroke-width="2" stroke-miterlimit="10" x1="190.6" y1="271.8" x2="183.8" y2="274.3"/>
	</g>
</g>
</svg>
