<?xml version="1.0" encoding="utf-8"?>
<!-- Generator: Adobe Illustrator 18.0.0, SVG Export Plug-In . SVG Version: 6.00 Build 0)  -->
<!DOCTYPE svg PUBLIC "-//W3C//DTD SVG 1.1//EN" "http://www.w3.org/Graphics/SVG/1.1/DTD/svg11.dtd">
<svg version="1.1" xmlns="http://www.w3.org/2000/svg" xmlns:xlink="http://www.w3.org/1999/xlink" x="0px" y="0px"
	 viewBox="0 0 360 360" enable-background="new 0 0 360 360" xml:space="preserve">
<g id="Layer_2">
	<path fill="none" stroke="#000000" stroke-width="6" stroke-miterlimit="10" d="M100.2,281.3c0,0,156,0.2,180.4,0.2
		c29.8,0,40.2-2.9,40.2-42.8c0,0-0.3-46.4-0.8-61.5c-0.5-15.1-4-42.6-7-45.7s-8.4-5-8.4-5s1.5-6.6,1.8-8.1s-0.1-4.5-1.8-5.5
		c-1.7-0.9-10.9-6.5-15.9-7.5c-5-0.9-18.1-3.3-20.6-2.9s-4.9,2.5-4.9,2.5s-4.2-4-4.6-4.7s-4.3-11-6.2-13.2c-1.8-2.3-8.9-9.3-14.3-11
		c-1.2-0.2-2.4-0.3-2.4-0.3s0-1.2,0-2.2s-0.7-2.5-1.6-2.5s-37.9,0-40.5,0c-2.6,0-4,1.3-4,4c0,0-6.5,2.3-11.1,5.5
		c-4.6,3.2-7.1,7.2-8.5,9.8c-1.4,2.6-5.5,10.7-6.8,12.1c-1.3,1.4-7.4,6.2-15.1,7.8c-7.8,1.6-23.7,4.1-30.9,4.8
		c-7.1,0.7-17.7,1.3-17.7,1.3s-2.6-0.9-4.4-0.9s-8.8-0.3-17.8,2.1c-9,2.4-9.5,1.8-14.8,4.4c-5.3,2.6-13.3,7.9-16.3,13.5
		c-3,5.6-4.6,16.5-4.7,23.7s-2.4,44.5-2.1,55.1c0.4,10.6,1.3,46.9,1.8,54c0.5,7,3.8,11.7,8.4,13.2c4.5,1.5,40.8,2,43,1.8
		C94.8,283.1,98.5,282.7,100.2,281.3z"/>
</g>
<g id="Layer_3">
	<path d="M105.6,270.2h-1c-0.7,0-1.4-0.6-1.4-1.4V162.8c0-0.7,0.6-1.4,1.4-1.4h1c0.7,0,1.4,0.6,1.4,1.4v106.1
		C106.9,269.6,106.3,270.2,105.6,270.2z"/>
	<path d="M92,126c0.9,2.8-4.8,6.7-9.7,6.7c-4.9,0-9.4-1.6-9.6-4.5c-0.2-3.9,4-7,9.2-7C87.6,121.2,90.7,122,92,126z"/>
	<circle fill="none" stroke="#000000" stroke-width="5" stroke-miterlimit="10" cx="208.9" cy="201.3" r="39.6"/>
	<circle fill="none" stroke="#000000" stroke-width="6" stroke-miterlimit="10" cx="208.5" cy="201.1" r="64.4"/>
	<path d="M279.4,215c0,0,2-10.4,1.7-17.6c-0.4-7.2-1.7-15.2-1.7-15.2h2.2c0,0,8.6,7.6,8.6,15.9c0,8.3-8.2,16.9-8.2,16.9H279.4z"/>
</g>
</svg>
