<?xml version="1.0" encoding="utf-8"?>
<!-- Generator: Adobe Illustrator 18.0.0, SVG Export Plug-In . SVG Version: 6.00 Build 0)  -->
<!DOCTYPE svg PUBLIC "-//W3C//DTD SVG 1.1//EN" "http://www.w3.org/Graphics/SVG/1.1/DTD/svg11.dtd">
<svg version="1.1" id="Layer_1" xmlns="http://www.w3.org/2000/svg" xmlns:xlink="http://www.w3.org/1999/xlink" x="0px" y="0px"
	 viewBox="0 0 360 360" enable-background="new 0 0 360 360" xml:space="preserve">
<g id="Layer_2">
	<path d="M251.9,115.4c0,0-22.7,84.3-26,98.3s1.7,23.1,22.3,10.3s30.2-56.6,30.2-56.6s7.4-45.5-17.4-69.8s-43.8-28.5-67.4-27.3
		s-54.5,13.6-74.8,36.4S84.1,162.1,82,186.5c-2.1,24.4,5.4,57.6,34.3,83.1c19.3,17,49.2,24,77.7,16.9s52.1-23.1,57-26.4
		s11.6-6.6,14.9-2.9s3.2,9.4,1.7,11.6c-8.7,12-18.6,18.2-31.4,24.8c-12.8,6.6-45.4,16.9-68.6,16.9c-28.5,0-55.2-8.2-79.3-30.2
		c-17.5-15.9-28.9-42.4-32.5-74.8c-2.4-21.6,2.3-52.6,20.9-83.7c25.3-35.9,41.1-46.9,67-59.7c26.1-10.8,52.9-14.9,76.9-10.7
		S264,64.7,279.1,80s27.5,39.6,27.9,61.9s-8.7,48.3-21.9,69c-13.2,20.7-31,34.7-44.2,38.4s-34.1,2-38.3-9.2
		c-2.5-6.5-0.7-11.2-0.6-11.9c0.2-1.1-0.6-0.9-1.2-0.3c-0.6,0.7-2.6,4.1-4.4,6c0,0-11.8,10.7-25.3,14.5s-32.3,1.9-39.9-2.8
		c-7.7-4.7-18.9-14-20.4-31.5c-1.1-13,2.4-33.4,10.9-53.4c7.2-14.6,21.8-31.2,38.5-39.7s31.4-11.1,49.3-9.1c0,0,12.8,2.9,16.4,3.9
		c3.6,1,4.1,1,8.8,0c0,0,6.1-3.3,8.9-3.4C246.1,112.2,250.3,111.6,251.9,115.4z"/>
</g>
<path fill="#FFFFFF" d="M221.1,138.3c-18.4-7.2-27.5-8.1-41.1-3.1c-13.6,4.9-36,20.6-42.3,61c-6.3,40.4,46.7,41.3,62.8,6.3
	S221.1,138.3,221.1,138.3z"/>
</svg>
